<svg id="Layer_8" viewBox="0 0 24 24" xmlns="http://www.w3.org/2000/svg" data-name="Layer 8">
   <path d="m9 3c0 .55-.45 1-1 1h-3c-.55 0-1 .45-1 1v3c0 .55-.45 1-1 1s-1-.45-1-1v-3c0-1.65 1.35-3 3-3h3c.55 0 1 .45 1 1zm12 12c-.55 0-1 .45-1 1v3c0 .55-.45 1-1 1h-3c-.55 0-1 .45-1 1s.45 1 1 1h3c1.65 0 3-1.35 3-3v-3c0-.55-.45-1-1-1zm-13 5h-3c-.55 0-1-.45-1-1v-3c0-.55-.45-1-1-1s-1 .45-1 1v3c0 1.65 1.35 3 3 3h3c.55 0 1-.45 1-1s-.45-1-1-1zm11-18h-3c-.55 0-1 .45-1 1s.45 1 1 1h3c.55 0 1 .45 1 1v3c0 .55.45 1 1 1s1-.45 1-1v-3c0-1.65-1.35-3-3-3z" />
</svg>