<svg id="fi_17895956" viewBox="0 0 24 24" xmlns="http://www.w3.org/2000/svg" data-name="Layer 19">
   <path d="
   m13 6v12c0 .37-.2.71-.53.88-.15.08-.31.12-.47.12-.19 0-.39-.06-.55-.17l-4-2.66c-.17-.11-.36-.17-.56-.17h-1.89c-1.65 0-3-1.35-3-3v-2c0-1.65 1.35-3 3-3h1.89c.2 0 .39-.06.56-.17l4-2.66c.3-.21.7-.23 1.02-.05.33.17.53.51.53.88z
   m3.61 6-1.41-1.41c-.39-.39-.39-1.02 0-1.41s1.02-.39 1.41 0l1.41 1.41 1.41-1.41c.39-.39 1.02-.39 1.41 0s.39 1.02 0 1.41l-1.41 1.41 1.41 1.41c.39.39.39 1.02 0 1.41-.2.2-.45.29-.71.29s-.51-.1-.71-.29l-1.41-1.41-1.41 1.41c-.2.2-.45.29-.71.29s-.51-.1-.71-.29c-.39-.39-.39-1.02 0-1.41l1.41-1.41z"></path>
</svg>