<svg viewBox="0 0 24 24" xmlns="http://www.w3.org/2000/svg" id="fi_7827050">
   <path fill="rgb(0,0,0)" d="
        m20 1h-16a3 3 0 0 0 -3 3v16a3 3 0 0 0 3 3h16a3 3 0 0 0 3-3v-16a3 3 0 0 0 -3-3z
        m1 19a1 1 0 0 1 -1 1h-16a1 1 0 0 1 -1-1v-16a1 1 0 0 1 1-1h16a1 1 0 0 1 1 1z
        M 11.63 6.31 l 0.53 -0.53 c 0.62 -0.62 1.71 -0.62 2.33 0 l 0.43 0.43 c 0.31 0.31 0.49 0.73 0.49 1.16 s -0.18 0.85 -0.49 1.16 l -0.53 0.53 -2.76 -2.76 Z
        M 10.97 7.03 l -5.47 5.47 c -0.17 0.17 -0.28 0.4 -0.3 0.65 l -0.16 1.76 c -0.02 0.22 0.06 0.44 0.22 0.6 c 0.14 0.14 0.33 0.22 0.53 0.22 h 0.07 l 1.76 -0.16 c 0.24 -0.02 0.48 -0.13 0.65 -0.31 l 5.47 -5.47 -2.76 -2.76 Z
        M 6 17 H 18 A 1 1 0 0 1 18 19 H 6 A 1 1 0 0 1 6 17 Z
    "/>
</svg>