<svg fill="none" height="24" viewBox="0 0 24 24" width="24" xmlns="http://www.w3.org/2000/svg" id="fi_10286323">
   <path clip-rule="evenodd" d="m7.70711 1.29289c-.39053-.390521-1.02369-.390521-1.41422 0-.39052.39053-.39052 1.02369 0 1.41422l3.2929 3.29289h-5.58579c-1.65685 0-3 1.34315-3 3v11c0 1.6569 1.34315 3 3 3h16c1.6569 0 3-1.3431 3-3v-11c0-1.65685-1.3431-3-3-3h-5.5858l3.2929-3.29289c.3905-.39053.3905-1.02369 0-1.41422-.3905-.390521-1.0237-.390521-1.4142 0l-4.2929 4.2929zm-4.70711 7.70711c0-.55228.44772-1 1-1h16c.5523 0 1 .44772 1 1v11c0 .5523-.4477 1-1 1h-16c-.55228 0-1-.4477-1-1z" fill="rgb(0,0,0)" fill-rule="evenodd"></path>
</svg>