<svg viewBox="0 0 24 24" xmlns="http://www.w3.org/2000/svg" id="fi_7827050">
   <path d="
        m20 5h-16a3 3 0 0 0 -3 3v12a3 3 0 0 0 3 3h16a3 3 0 0 0 3-3v-12a3 3 0 0 0 -3-3z
        m1 15a1 1 0 0 1 -1 1h-16a1 1 0 0 1 -1-1v-12a1 1 0 0 1 1-1h16a1 1 0 0 1 1 1z
        M 7 1 H 22 A 1 1 0 0 1 22 3 H 2 A 1 1 0 1 1 2 1 Z
        M 15.85 13 l-6-3.6c-.37-.23-.83-.23-1.21-.01s-.61.61-.61 1.04v7.2c0 .43.23.83.61 1.04.18.11.38.16.59.16s.43-.06.61-.17l6-3.6c.36-.22.59-.61.59-1.03s-.22-.82-.59-1.03z
        m-5.83 3.4v-4.79l3.99 2.39-3.71 2.22z
    " />
</svg>