<svg viewBox="0 0 24 24" xmlns="http://www.w3.org/2000/svg" id="fi_7827050">
   <path fill="rgb(0,0,0)" d="
   m12 8a4 4 0 1 0 4 4 4 4 0 0 0 -4-4zm0 6a2 2 0 1 1 2-2 2 2 0 0 1 -2 2zm8.7-5a.31.31 0 0 1 -.29-.2c-.06-.16-.12-.32-.19-.48a.3.3 0 0 1 .05-.32 2.29 2.29 0 0 0 0-3.26l-1-1a2.35 2.35 0 0 0 -3.26 0 .3.3 0 0 1 -.34 0l-.48-.19a.31.31 0 0 1 -.19-.25 2.3 2.3 0 0 0 -2.3-2.3h-1.4a2.3 2.3 0 0 0 -2.3 2.3.31.31 0 0 1 -.2.29l-.48.19a.3.3 0 0 1 -.34 0 2.35 2.35 0 0 0 -3.26 0l-1 1a2.29 2.29 0 0 0 .01 3.22.3.3 0 0 1 0 .35c-.07.16-.13.32-.19.47a.31.31 0 0 1 -.24.18 2.3 2.3 0 0 0 -2.3 2.3v1.4a2.3 2.3 0 0 0 2.3 2.3.31.31 0 0 1 .29.2c.06.16.12.32.19.48a.3.3 0 0 1 0 .35 2.29 2.29 0 0 0 0 3.26l1 1a2.35 2.35 0 0 0 3.26 0 .3.3 0 0 1 .34 0l.48.19a.31.31 0 0 1 .2.29 2.3 2.3 0 0 0 2.24 2.23h1.4a2.3 2.3 0 0 0 2.3-2.3.31.31 0 0 1 .2-.29l.48-.19a.3.3 0 0 1 .34 0 2.35 2.35 0 0 0 3.26 0l1-1a2.29 2.29 0 0 0 0-3.26.3.3 0 0 1 -.05-.35c.07-.16.13-.32.19-.47a.31.31 0 0 1 .28-.14 2.3 2.3 0 0 0 2.3-2.3v-1.4a2.3 2.3 0 0 0 -2.3-2.3zm.3 3.7a.31.31 0 0 1 -.3.3 2.3 2.3 0 0 0 -2.16 1.49 2.39 2.39 0 0 1 -.15.37 2.29 2.29 0 0 0 .47 2.59.3.3 0 0 1 .09.21.33.33 0 0 1 -.09.22l-1 1a.26.26 0 0 1 -.42 0 2.29 2.29 0 0 0 -2.58-.46 2.39 2.39 0 0 1 -.37.15 2.29 2.29 0 0 0 -1.49 2.13.31.31 0 0 1 -.3.3h-1.4a.31.31 0 0 1 -.3-.3 2.29 2.29 0 0 0 -1.49-2.16 2.39 2.39 0 0 1 -.37-.15 2.34 2.34 0 0 0 -1-.21 2.28 2.28 0 0 0 -1.62.67c-.16.16-.28.12-.42 0l-1-1a.31.31 0 0 1 0-.44 2.28 2.28 0 0 0 .47-2.58 2.39 2.39 0 0 1 -.15-.37 2.3 2.3 0 0 0 -2.12-1.46.31.31 0 0 1 -.3-.3v-1.4a.31.31 0 0 1 .3-.3 2.3 2.3 0 0 0 2.16-1.49 2.39 2.39 0 0 1 .15-.37 2.29 2.29 0 0 0 -.47-2.59.3.3 0 0 1 -.09-.21.33.33 0 0 1 .09-.22l1-1a.26.26 0 0 1 .42 0 2.29 2.29 0 0 0 2.58.46 2.39 2.39 0 0 1 .37-.15 2.29 2.29 0 0 0 1.49-2.13.31.31 0 0 1 .3-.3h1.4a.31.31 0 0 1 .3.3 2.29 2.29 0 0 0 1.49 2.16 2.39 2.39 0 0 1 .37.15 2.29 2.29 0 0 0 2.58-.46.26.26 0 0 1 .42 0l1 1a.31.31 0 0 1 0 .44 2.28 2.28 0 0 0 -.47 2.58 2.39 2.39 0 0 1 .15.37 2.3 2.3 0 0 0 2.16 1.46.31.31 0 0 1 .3.3z"/>
</svg>

