<svg viewBox="0 0 24 24" xmlns="http://www.w3.org/2000/svg" id="fi_7827050">
   <path fill="rgb(0,0,0)" d="
   m20 1h-16a3 3 0 0 0 -3 3v16a3 3 0 0 0 3 3h16a3 3 0 0 0 3-3v-16a3 3 0 0 0 -3-3zm1 19a1 1 0 0 1 -1 1h-16a1 1 0 0 1 -1-1v-16a1 1 0 0 1 1-1h16a1 1 0 0 1 1 1z
   m-2-13a1 1 0 0 1 -1 1h-7a1 1 0 0 1 0-2h7a1 1 0 0 1 1 1zm0 5a1 1 0 0 1 -1 1h-7a1 1 0 0 1 0-2h7a1 1 0 0 1 1 1zm0 5a1 1 0 0 1 -1 1h-7a1 1 0 0 1 0-2h7a1 1 0 0 1 1 1zm-11 0a1 1 0 0 1 -1 1h-1a1 1 0 0 1 0-2h1a1 1 0 0 1 1 1zm0-5a1 1 0 0 1 -1 1h-1a1 1 0 0 1 0-2h1a1 1 0 0 1 1 1zm0-5a1 1 0 0 1 -1 1h-1a1 1 0 0 1 0-2h1a1 1 0 0 1 1 1z"/>
</svg>