<svg fill="none" viewBox="0 0 24 24" xmlns="http://www.w3.org/2000/svg"
      xmlns:xlink="http://www.w3.org/1999/xlink" id="fi_9147804">
   <clipPath id="clip0_11_1405">
      <path d="m0 0h24v24h-24z"></path>
   </clipPath>
   <g clip-path="url(#clip0_11_1405)">
      <path d="m16.95 10.23-5.66 5.66c-.39.39-1.02.39-1.41 0l-2.83-2.83c-.39-.39-.39-1.02 0-1.41s1.02-.39 1.41 0l2.12 2.12 4.95-4.94999c.39-.39 1.02-.39 1.41 0 .4.39.4 1.02.01 1.40999zm-12.95 1.77c0-2.32999 1.02-4.41999 2.62-5.87999l1.53 1.53c.31.31.85.09.85-.36v-4.29c0-.28-.22-.5-.5-.5h-4.29c-.45 0-.67.54-.35.85l1.34 1.35c-1.96 1.82-3.2 4.41-3.2 7.29999 0 4.75 3.32 8.73 7.76 9.75.63.14 1.24-.33 1.24-.98 0-.47-.33-.87-.79-.98-3.55-.81-6.21-3.99-6.21-7.79zm18 0c0-4.74999-3.32-8.72999-7.76-9.74999-.63-.14-1.24.33-1.24.98 0 .47.33.87.79.98 3.55.81 6.21 3.99 6.21 7.78999 0 2.33-1.02 4.42-2.62 5.88l-1.53-1.53c-.31-.31-.85-.09-.85.36v4.29c0 .28.22.5.5.5h4.29c.45 0 .67-.54.35-.85l-1.34-1.35c1.96-1.82 3.2-4.41 3.2-7.3z"
            fill="#000"></path>
   </g>
</svg>