<svg id="Layer_7" viewBox="0 0 24 24" xmlns="http://www.w3.org/2000/svg" data-name="Layer 7">
   <path d="m9 3v3c0 1.65-1.35 3-3 3h-3c-.55 0-1-.45-1-1s.45-1 1-1h3c.55 0 1-.45 1-1v-3c0-.55.45-1 1-1s1 .45 1 1zm12 12h-3c-1.65 0-3 1.35-3 3v3c0 .55.45 1 1 1s1-.45 1-1v-3c0-.55.45-1 1-1h3c.55 0 1-.45 1-1s-.45-1-1-1zm-15 0h-3c-.55 0-1 .45-1 1s.45 1 1 1h3c.55 0 1 .45 1 1v3c0 .55.45 1 1 1s1-.45 1-1v-3c0-1.65-1.35-3-3-3zm12-6h3c.55 0 1-.45 1-1s-.45-1-1-1h-3c-.55 0-1-.45-1-1v-3c0-.55-.45-1-1-1s-1 .45-1 1v3c0 1.65 1.35 3 3 3z" />
</svg>