<svg id="Layer_20" viewBox="0 0 24 24" xmlns="http://www.w3.org/2000/svg" data-name="Layer 20">
   <path d="m13.47 5.12c-.33-.17-.72-.16-1.03.05l-4 2.66c-.17.11-.36.17-.56.17h-2.89c-1.65 0-3 1.35-3 3v2c0 1.65 1.35 3 3 3h2.89c.2 0 .39.06.55.17l4 2.66c.17.11.36.17.55.17.16 0 .32-.04.47-.12.33-.17.53-.51.53-.88v-12c0-.37-.2-.71-.53-.88zm-1.47 11.01-2.44-1.63c-.5-.33-1.07-.5-1.66-.5h-2.89c-.55 0-1-.45-1-1v-2c0-.55.45-1 1-1h2.89c.59 0 1.17-.17 1.66-.5l2.44-1.63zm10-10.13v10c0 .55-.45 1-1 1s-1-.45-1-1v-8c0-.55.45-1 1-1s1 .45 1 1zm-4 3v4c0 .55-.45 1-1 1s-1-.45-1-1v-2c0-.55.45-1 1-1s1 .45 1 1z" />
</svg>