<svg id="fi_17895954" viewBox="0 0 24 24" xmlns="http://www.w3.org/2000/svg" data-name="Layer 41">
   <path d="m19.58 9.57-11.82-7.09c-.92-.66-2.12-.75-3.12-.24-1.01.52-1.63 1.54-1.63 2.67v14.18c0 1.13.63 2.16 1.63 2.67.43.22.9.33 1.37.33.62 0 1.23-.19 1.75-.57l11.82-7.09c.79-.57 1.24-1.46 1.24-2.43s-.45-1.86-1.24-2.43zm-1.17 3.24-11.82 7.09c-.31.23-.7.25-1.04.08s-.54-.51-.54-.89v-14.18c0-.38.2-.72.54-.89.15-.08.3-.11.46-.11.2 0 .41.06.58.19l11.82 7.09c.26.19.41.49.41.81s-.15.62-.42.81z"></path>
</svg>